<svg width="174" height="144" viewBox="0 0 174 144" fill="none" xmlns="http://www.w3.org/2000/svg">
<path fill-rule="evenodd" clip-rule="evenodd" d="M15.6663 5.69629H153.666C162.135 5.69629 169 12.5613 169 21.0296V128.363C169 136.831 162.135 143.696 153.666 143.696H15.6663C7.19797 143.696 0.333008 136.831 0.333008 128.363V21.0296C0.333008 12.5613 7.19797 5.69629 15.6663 5.69629ZM15.6675 56.434V128.367H153.667V56.4366L84.6667 90.937L15.6675 56.434ZM15.6675 39.2904L84.667 73.7937L153.667 39.2934V21.0332H15.6675V39.2904Z" fill="#11263A"/>
<circle cx="164.167" cy="9.69775" r="9.5" fill="#FF4C48"/>
<path d="M164.03 17V3.20917L164.688 3.909H160.634V2.59167H165.512V17H164.03Z" fill="white"/>
</svg>
