<svg width="13" height="12" viewBox="0 0 13 12" fill="none" xmlns="http://www.w3.org/2000/svg">
<path d="M11.5332 3.66128H9.52679C9.5491 3.64296 9.57198 3.6252 9.59371 3.60577C9.76742 3.45598 9.90741 3.27302 10.0049 3.06832C10.1025 2.86362 10.1554 2.64159 10.1605 2.41612C10.168 2.16946 10.1235 1.92391 10.0297 1.69455C9.93593 1.46519 9.79482 1.25685 9.61507 1.08233C9.43532 0.907816 9.22072 0.770798 8.98444 0.679692C8.74816 0.588586 8.49518 0.545314 8.24105 0.552533C8.00865 0.557391 7.77979 0.60876 7.56878 0.703422C7.35778 0.798085 7.16918 0.934003 7.01479 1.10267C6.80115 1.34298 6.62748 1.61419 6.50003 1.9065C6.37259 1.61419 6.19891 1.34298 5.98528 1.10267C5.83089 0.934003 5.64229 0.798085 5.43129 0.703422C5.22028 0.60876 4.99142 0.557391 4.75902 0.552533C4.50488 0.545314 4.25191 0.588586 4.01563 0.679692C3.77935 0.770798 3.56475 0.907816 3.385 1.08233C3.20525 1.25685 3.06414 1.46519 2.97035 1.69455C2.87655 1.92391 2.83204 2.16946 2.83956 2.41612C2.84464 2.64159 2.8976 2.86362 2.99513 3.06832C3.09266 3.27302 3.23265 3.45598 3.40636 3.60577C3.42809 3.62409 3.45097 3.64185 3.47328 3.66128H1.46688C1.22417 3.66128 0.991408 3.75486 0.81979 3.92143C0.648172 4.08801 0.551758 4.31393 0.551758 4.54949V6.32592C0.551758 6.56149 0.648172 6.78741 0.81979 6.95398C0.991408 7.12056 1.22417 7.21414 1.46688 7.21414V10.767C1.46688 11.0026 1.56329 11.2285 1.73491 11.3951C1.90653 11.5616 2.13929 11.6552 2.382 11.6552H10.6181C10.8608 11.6552 11.0935 11.5616 11.2652 11.3951C11.4368 11.2285 11.5332 11.0026 11.5332 10.767V7.21414C11.7759 7.21414 12.0087 7.12056 12.1803 6.95398C12.3519 6.78741 12.4483 6.56149 12.4483 6.32592V4.54949C12.4483 4.31393 12.3519 4.08801 12.1803 3.92143C12.0087 3.75486 11.7759 3.66128 11.5332 3.66128ZM7.70113 1.69111C7.77358 1.61346 7.86178 1.55118 7.96021 1.5082C8.05863 1.46521 8.16515 1.44243 8.27308 1.4413H8.3011C8.4276 1.44207 8.55267 1.46734 8.66897 1.51562C8.78528 1.5639 8.89049 1.63423 8.97844 1.72249C9.06638 1.81074 9.13529 1.91514 9.18113 2.02958C9.22697 2.14401 9.24882 2.26618 9.24539 2.38892C9.24423 2.49367 9.22076 2.59706 9.17647 2.69259C9.13218 2.78812 9.06802 2.87373 8.98802 2.94405C8.44523 3.41036 7.54441 3.57468 6.98619 3.63241C7.05483 3.04453 7.24357 2.19018 7.70113 1.69111ZM4.0355 1.7111C4.21278 1.53906 4.45286 1.4419 4.70354 1.44075H4.73157C4.83949 1.44188 4.94601 1.46465 5.04444 1.50764C5.14286 1.55063 5.23107 1.61291 5.30352 1.69056C5.78338 2.21682 5.95268 3.08949 6.01216 3.62908C5.45623 3.57357 4.55712 3.40703 4.01491 2.94127C3.93491 2.87096 3.87075 2.78534 3.82646 2.68981C3.78216 2.59428 3.7587 2.49089 3.75754 2.38614C3.75399 2.26136 3.7766 2.13719 3.82398 2.02115C3.87137 1.90511 3.94256 1.79963 4.03322 1.7111H4.0355ZM1.46688 4.54949H6.04247V6.32592H1.46688V4.54949ZM2.382 7.21414H6.04247V10.767H2.382V7.21414ZM10.6181 10.767H6.95759V7.21414H10.6181V10.767ZM11.5332 6.32592H6.95759V4.54949H11.5332V6.32592Z" fill="white"/>
</svg>
