<svg width="57" height="56" viewBox="0 0 57 56" fill="none" xmlns="http://www.w3.org/2000/svg">
<g clip-path="url(#clip0_151_1091)">
<g clip-path="url(#clip1_151_1091)">
<path d="M56.6309 28C56.6309 12.536 44.0948 0 28.6309 0C13.1669 0 0.630859 12.536 0.630859 28C0.630859 43.464 13.1669 56 28.6309 56C44.0948 56 56.6309 43.464 56.6309 28Z" fill="url(#paint0_linear_151_1091)"/>
<path d="M40.5806 18.3962C41.3003 19.3408 41.9091 20.3648 42.395 21.4482L28.6302 31.7466L22.8398 28.0898V23.6826L28.6302 27.345L40.5806 18.3962Z" fill="white"/>
<path d="M16.9603 27.7762C16.9603 27.5802 16.9603 27.3842 16.9603 27.1882L13.4659 27.0146C13.4659 27.2666 13.4659 27.5242 13.4659 27.7818C13.4496 31.8445 15.0422 35.7483 17.8955 38.6402L20.3707 36.1314C18.1764 33.9052 16.9506 30.9021 16.9603 27.7762Z" fill="white"/>
<path d="M28.6302 15.977C28.8207 15.977 29.0167 15.977 29.1902 15.977L29.3694 12.4378C29.1174 12.4378 28.8655 12.4378 28.6135 12.4378C26.6205 12.4353 24.6472 12.8303 22.8087 13.5995C20.9702 14.3687 19.3036 15.4968 17.9062 16.9178L20.3814 19.4266C21.4587 18.3372 22.7392 17.4697 24.1502 16.873C25.5686 16.2777 27.092 15.9731 28.6302 15.977Z" fill="white"/>
<path d="M28.6304 39.5753C28.4344 39.5753 28.2384 39.5753 28.0704 39.5753L27.8408 43.1201C28.0928 43.1201 28.3448 43.1201 28.6024 43.1201C30.5937 43.1227 32.5654 42.7277 34.4021 41.9584C36.2387 41.1892 37.9034 40.061 39.2984 38.6401L36.8288 36.1313C35.7524 37.2271 34.4696 38.0988 33.0544 38.6961C31.6524 39.279 30.1487 39.5779 28.6304 39.5753Z" fill="white"/>
<path d="M35.1659 18.0377L38.1059 15.8369C35.4242 13.631 32.0584 12.4272 28.5859 12.4321V15.9769C30.9386 15.9734 33.2356 16.6928 35.1659 18.0377Z" fill="white"/>
<path d="M43.7501 27.776C43.7532 26.8543 43.6745 25.9341 43.5149 25.0264L40.2445 27.44V27.7536C40.2565 29.4072 39.9247 31.0453 39.2701 32.564C38.6121 34.0669 37.6469 35.4155 36.4365 36.5232L38.7885 39.1552C40.3588 37.7057 41.6107 35.9457 42.4648 33.9868C43.3189 32.0279 43.7566 29.9129 43.7501 27.776Z" fill="white"/>
<path d="M28.63 39.5754C27.0005 39.5769 25.3892 39.2314 23.9036 38.5618C22.4088 37.8916 21.0728 36.9125 19.9836 35.689L17.374 38.0802C18.7864 39.6693 20.5202 40.9404 22.4606 41.8093C24.4011 42.6781 26.5039 43.125 28.63 43.1202V39.5754Z" fill="white"/>
<path d="M20.7904 19.0402L18.444 16.4082C16.8686 17.8548 15.6118 19.6138 14.7537 21.573C13.8956 23.5321 13.455 25.6486 13.46 27.7874H16.96C16.9547 26.1431 17.2926 24.5158 17.9522 23.0096C18.6118 21.5034 19.5785 20.1515 20.7904 19.0402Z" fill="white"/>
</g>
</g>
<defs>
<linearGradient id="paint0_linear_151_1091" x1="15.1797" y1="41.9888" x2="53.9933" y2="1.624" gradientUnits="userSpaceOnUse">
<stop stop-color="#A3CD38"/>
<stop offset="0.04" stop-color="#A3CD38"/>
<stop offset="0.11" stop-color="#8EC850"/>
<stop offset="0.21" stop-color="#75C26C"/>
<stop offset="0.27" stop-color="#6CC076"/>
<stop offset="0.28" stop-color="#65BE7F"/>
<stop offset="0.36" stop-color="#55BA91"/>
<stop offset="0.51" stop-color="#2CAFBF"/>
<stop offset="0.61" stop-color="#0FA8E0"/>
</linearGradient>
<clipPath id="clip0_151_1091">
<rect width="56" height="56" fill="white" transform="translate(0.630859)"/>
</clipPath>
<clipPath id="clip1_151_1091">
<rect width="56" height="56" fill="white" transform="translate(0.630859)"/>
</clipPath>
</defs>
</svg>
