<svg width="22" height="22" viewBox="0 0 22 22" fill="none" xmlns="http://www.w3.org/2000/svg">
<rect width="22" height="22" rx="11" fill="url(#paint0_linear_301_94)"/>
<path d="M4.7357 10.355C4.7357 10.355 10.043 8.15984 11.8837 7.38686C12.5893 7.07769 14.9822 6.08827 14.9822 6.08827C14.9822 6.08827 16.0866 5.65544 15.9945 6.70665C15.9639 7.13953 15.7185 8.6545 15.473 10.2932C15.1049 12.6121 14.7061 15.1474 14.7061 15.1474C14.7061 15.1474 14.6447 15.8585 14.1232 15.9822C13.6017 16.1059 12.7427 15.5493 12.5893 15.4257C12.4665 15.3329 10.2884 13.9415 9.49081 13.2613C9.27605 13.0759 9.03064 12.7049 9.52147 12.272C10.6259 11.2517 11.945 9.984 12.7427 9.18014C13.1108 8.8091 13.4789 7.9434 11.945 8.9946C9.76694 10.5096 7.61944 11.9319 7.61944 11.9319C7.61944 11.9319 7.12858 12.2411 6.20825 11.9628C5.28788 11.6845 4.21414 11.3135 4.21414 11.3135C4.21414 11.3135 3.47791 10.8497 4.7357 10.355Z" fill="white"/>
<defs>
<linearGradient id="paint0_linear_301_94" x1="11" y1="0" x2="11" y2="22" gradientUnits="userSpaceOnUse">
<stop stop-color="#3EC3FF"/>
<stop offset="1" stop-color="#02A1F4"/>
</linearGradient>
</defs>
</svg>
