<svg width="22" height="22" viewBox="0 0 22 22" fill="none" xmlns="http://www.w3.org/2000/svg">
<path d="M4 5H19V18H4V5Z" fill="white"/>
<path fill-rule="evenodd" clip-rule="evenodd" d="M18.781 3.22844C16.7054 1.14271 13.9415 0 11 0C4.93945 0 0 4.93696 0 10.9945C0 12.7805 0.432108 14.5196 1.24446 16.0822C1.38039 16.3437 1.42165 16.6459 1.34417 16.9302L0.163646 21.2622C0.0514035 21.6742 0.427168 22.053 0.840217 21.9445L5.31241 20.7695C5.58617 20.6976 5.87599 20.7352 6.12976 20.8606C7.63863 21.6058 9.30517 22 11 22C17.0606 22 22 17.063 22 11.0055C22 8.06556 20.8567 5.30308 18.781 3.22844ZM15.9735 12.7584C16.1386 12.8388 16.2711 12.9033 16.3391 12.936C16.3939 12.9622 16.4445 12.9855 16.4908 13.007C16.6789 13.0936 16.7984 13.1487 16.8608 13.2466C16.9385 13.3686 16.9384 13.9123 16.7054 14.5557C16.4834 15.1992 15.3845 15.7872 14.8517 15.8649C14.3744 15.9314 13.775 15.9647 13.1201 15.7539C12.7205 15.6319 12.2099 15.4655 11.555 15.177C8.92322 14.0421 7.15381 11.4571 6.88695 11.0672C6.87468 11.0493 6.86559 11.0361 6.85973 11.0277L6.85757 11.0249C6.71622 10.8366 5.73864 9.534 5.73864 8.1876C5.73864 6.93882 6.34335 6.27556 6.62872 5.96257C6.65265 5.93632 6.67434 5.91253 6.69323 5.89107C6.94853 5.61372 7.23713 5.54715 7.42582 5.54715H7.95862C7.9779 5.54844 7.99807 5.54868 8.01901 5.54894C8.17895 5.55087 8.38392 5.55334 8.58021 6.02421C8.80223 6.57892 9.35723 7.93243 9.42383 8.06556C9.49043 8.19869 9.53483 8.35401 9.44603 8.54261C9.43848 8.55776 9.43115 8.57249 9.42394 8.58688C9.34713 8.74118 9.2903 8.8554 9.16853 8.99748C9.12602 9.04707 9.08117 9.10121 9.036 9.15579C8.93943 9.2724 8.84097 9.39144 8.75783 9.47453C8.61351 9.61876 8.48031 9.76299 8.63571 10.0403C8.80223 10.3177 9.34613 11.2163 10.1675 11.9486C11.0596 12.7454 11.8382 13.0798 12.2186 13.2434C12.283 13.2711 12.3361 13.2939 12.3764 13.3132C12.6539 13.4574 12.8204 13.4352 12.9758 13.2466C13.1312 13.0691 13.6529 12.4478 13.8416 12.1704C14.0303 11.9042 14.2079 11.9486 14.4632 12.0373C14.6475 12.1128 15.4648 12.5107 15.9735 12.7584Z" fill="url(#paint0_linear_151_891)"/>
<defs>
<linearGradient id="paint0_linear_151_891" x1="11" y1="0" x2="11" y2="22" gradientUnits="userSpaceOnUse">
<stop stop-color="#60FD7C"/>
<stop offset="1" stop-color="#29D146"/>
</linearGradient>
</defs>
</svg>
