<svg width="18" height="15" viewBox="0 0 18 15" fill="none" xmlns="http://www.w3.org/2000/svg">
<path d="M1 6.26087C0.447715 6.26087 0 6.70858 0 7.26087C0 7.81315 0.447715 8.26087 1 8.26087V6.26087ZM17 7.26087L17.6912 7.98351C17.8884 7.79486 18 7.53379 18 7.26087C18 6.98795 17.8884 6.72688 17.6912 6.53823L17 7.26087ZM11.1458 0.277358C10.7467 -0.104394 10.1137 -0.0903267 9.7319 0.308777C9.35015 0.707881 9.36422 1.34089 9.76332 1.72264L11.1458 0.277358ZM9.76332 12.7991C9.36422 13.1808 9.35015 13.8139 9.7319 14.213C10.1137 14.6121 10.7467 14.6261 11.1458 14.2444L9.76332 12.7991ZM1 8.26087H17V6.26087H1V8.26087ZM9.76332 1.72264L16.3088 7.98351L17.6912 6.53823L11.1458 0.277358L9.76332 1.72264ZM16.3088 6.53823L9.76332 12.7991L11.1458 14.2444L17.6912 7.98351L16.3088 6.53823Z" fill="black"/>
</svg>
