<svg width="18" height="18" viewBox="0 0 18 18" fill="none" xmlns="http://www.w3.org/2000/svg">
<path d="M13.3569 7.72355C13.7565 7.34233 13.7714 6.70934 13.3902 6.30973C13.009 5.91012 12.376 5.89522 11.9764 6.27645L13.3569 7.72355ZM7.775 11.6667L7.08411 12.3896C7.47041 12.7588 8.07866 12.759 8.46527 12.3902L7.775 11.6667ZM6.02422 8.61037C5.62494 8.2288 4.99194 8.24317 4.61037 8.64245C4.2288 9.04173 4.24317 9.67473 4.64245 10.0563L6.02422 8.61037ZM11.9764 6.27645L7.08473 10.9431L8.46527 12.3902L13.3569 7.72355L11.9764 6.27645ZM8.46589 10.9437L6.02422 8.61037L4.64245 10.0563L7.08411 12.3896L8.46589 10.9437ZM16 9C16 12.866 12.866 16 9 16V18C13.9706 18 18 13.9706 18 9H16ZM9 16C5.13401 16 2 12.866 2 9H0C0 13.9706 4.02944 18 9 18V16ZM2 9C2 5.13401 5.13401 2 9 2V0C4.02944 0 0 4.02944 0 9H2ZM9 2C12.866 2 16 5.13401 16 9H18C18 4.02944 13.9706 0 9 0V2Z" fill="black"/>
</svg>
