<svg width="100" height="100" viewBox="0 0 100 100" fill="none" xmlns="http://www.w3.org/2000/svg">
<rect width="100" height="100" rx="50" fill="var(--index)"/>
<path d="M25.4545 69.1481V36.8831C25.4544 36.3851 25.6265 35.8992 25.9475 35.4912C26.2686 35.0833 26.723 34.7731 27.2491 34.6027L53.6245 26.0731C53.8306 26.0064 54.0517 25.9849 54.269 26.0104C54.4864 26.0359 54.6937 26.1076 54.8732 26.2195C55.0528 26.3314 55.1994 26.4801 55.3006 26.6531C55.4018 26.8261 55.4546 27.0183 55.4545 27.2133V39.229L72.68 44.3356C73.2233 44.4966 73.6958 44.8056 74.0307 45.2188C74.3655 45.632 74.5456 46.1285 74.5455 46.6378V69.1481H80V74H20V69.1481H25.4545ZM30.9091 69.1481H50V32.4073L30.9091 38.5837V69.1481ZM69.0909 69.1481V48.3869L55.4545 44.3429V69.1481H69.0909Z" fill="white"/>
</svg>
