<svg width="26.000000" height="20.000000" viewBox="0 0 26 20" fill="none" xmlns="http://www.w3.org/2000/svg" xmlns:xlink="http://www.w3.org/1999/xlink">
	<desc>
			Created with Pixso.
	</desc>
	<defs/>
	<path id="path" d="M25 0L1 0C0.86 0 0.73 0.02 0.61 0.07C0.49 0.12 0.38 0.19 0.29 0.29C0.19 0.38 0.12 0.49 0.07 0.61C0.02 0.73 0 0.86 0 1L0 18C0 18.26 0.05 18.52 0.15 18.76C0.25 19.01 0.39 19.22 0.58 19.41C0.77 19.6 0.98 19.74 1.23 19.84C1.47 19.94 1.73 20 2 20L24 20C24.26 20 24.52 19.94 24.76 19.84C25.01 19.74 25.22 19.6 25.41 19.41C25.6 19.22 25.74 19.01 25.84 18.76C25.94 18.52 26 18.26 26 18L26 1C26 0.86 25.97 0.73 25.92 0.61C25.87 0.49 25.8 0.38 25.7 0.29C25.61 0.19 25.5 0.12 25.38 0.07C25.26 0.02 25.13 0 25 0ZM24 18L2 18L2 3.27L12.32 12.73C12.41 12.82 12.52 12.88 12.63 12.93C12.75 12.97 12.87 13 13 13C13.12 13 13.24 12.97 13.36 12.93C13.47 12.88 13.58 12.82 13.67 12.73L24 3.27L24 18Z" fill="#000000" fill-opacity="1.000000" fill-rule="nonzero"/>
</svg>
