<svg width="25.000000" height="25.000000" viewBox="0 0 25 25" fill="none" xmlns="http://www.w3.org/2000/svg" xmlns:xlink="http://www.w3.org/1999/xlink">
	<desc>
			Created with Pixso.
	</desc>
	<defs/>
	<path id="path" d="M23.79 15.8L17.9 13.16L17.89 13.16C17.58 13.02 17.25 12.97 16.92 13C16.58 13.03 16.27 13.14 15.99 13.33C15.96 13.35 15.93 13.38 15.9 13.4L12.85 16C10.93 15.06 8.94 13.08 8 11.18L10.6 8.09C10.62 8.06 10.65 8.03 10.67 8C10.85 7.72 10.96 7.41 10.99 7.08C11.02 6.74 10.97 6.42 10.83 6.11L10.83 6.1L8.19 0.2C8.1 0 7.99 -0.18 7.84 -0.34C7.7 -0.5 7.53 -0.63 7.35 -0.74C7.16 -0.85 6.96 -0.92 6.75 -0.97C6.54 -1.01 6.32 -1.02 6.11 -0.99C5.69 -0.93 5.28 -0.84 4.88 -0.71C4.47 -0.58 4.08 -0.42 3.71 -0.22C3.34 -0.02 2.98 0.21 2.65 0.48C2.32 0.74 2.02 1.03 1.74 1.35C1.46 1.67 1.21 2.01 0.99 2.37C0.77 2.74 0.59 3.12 0.44 3.51C0.29 3.91 0.18 4.32 0.11 4.73C0.03 5.15 -0.01 5.57 -7.63e-6 6C-7.63e-6 15.92 8.07 24 18 24C18.42 24 18.84 23.96 19.26 23.88C19.67 23.81 20.08 23.7 20.48 23.55C20.87 23.4 21.25 23.22 21.62 23C21.98 22.78 22.32 22.53 22.64 22.25C22.96 21.97 23.25 21.67 23.51 21.34C23.78 21.01 24.01 20.65 24.21 20.28C24.41 19.91 24.57 19.52 24.7 19.11C24.83 18.71 24.92 18.3 24.98 17.88C25.01 17.67 25 17.45 24.96 17.24C24.91 17.03 24.84 16.83 24.73 16.64C24.62 16.46 24.49 16.29 24.33 16.15C24.17 16 23.99 15.89 23.79 15.8ZM18 22C17.47 21.99 16.95 21.97 16.43 21.92C15.91 21.86 15.39 21.79 14.87 21.68C14.36 21.58 13.85 21.45 13.35 21.3C12.85 21.15 12.36 20.97 11.87 20.77C11.39 20.57 10.92 20.35 10.46 20.1C9.99 19.85 9.55 19.58 9.11 19.29C8.67 19 8.25 18.69 7.85 18.36C7.44 18.03 7.06 17.67 6.69 17.3C6.32 16.93 5.96 16.55 5.63 16.14C5.3 15.74 4.99 15.32 4.7 14.88C4.41 14.44 4.14 14 3.89 13.53C3.64 13.07 3.42 12.6 3.22 12.12C3.02 11.63 2.84 11.14 2.69 10.64C2.54 10.14 2.41 9.63 2.31 9.12C2.2 8.6 2.13 8.08 2.07 7.56C2.02 7.04 2 6.52 1.99 6C1.99 5.69 2.02 5.39 2.07 5.09C2.13 4.8 2.21 4.51 2.31 4.22C2.42 3.94 2.55 3.67 2.7 3.41C2.86 3.15 3.03 2.9 3.23 2.67C3.43 2.45 3.65 2.24 3.89 2.05C4.12 1.86 4.37 1.69 4.64 1.55C4.91 1.41 5.18 1.29 5.47 1.2C5.76 1.1 6.05 1.04 6.35 1C6.35 1 6.35 1.01 6.35 1.01L8.98 6.89L6.39 9.98C6.37 10.01 6.34 10.04 6.32 10.07C6.13 10.37 6.03 10.69 6 11.04C5.98 11.39 6.05 11.72 6.2 12.04C7.33 14.35 9.66 16.67 12.01 17.8C12.32 17.95 12.66 18.01 13.01 17.99C13.36 17.96 13.68 17.85 13.98 17.66C14.01 17.64 14.04 17.61 14.07 17.59L17.11 15L22.98 17.63C22.98 17.63 22.99 17.63 23 17.63C22.96 17.93 22.89 18.22 22.8 18.51C22.7 18.8 22.59 19.08 22.44 19.34C22.3 19.61 22.13 19.86 21.94 20.1C21.76 20.34 21.55 20.55 21.32 20.75C21.09 20.95 20.85 21.13 20.59 21.29C20.33 21.44 20.05 21.57 19.77 21.68C19.49 21.78 19.2 21.86 18.9 21.92C18.6 21.97 18.3 22 18 22Z" fill="#000000" fill-opacity="1.000000" fill-rule="nonzero"/>
</svg>
