<svg width="27.000000" height="26.000000" viewBox="0 0 27 26" fill="none" xmlns="http://www.w3.org/2000/svg" xmlns:xlink="http://www.w3.org/1999/xlink">
	<desc>
			Created with Pixso.
	</desc>
	<defs/>
	<path id="path" d="M25.86 23.5C23.96 20.2 21.02 17.84 17.6 16.73C17.88 16.56 18.15 16.38 18.41 16.18C18.67 15.98 18.92 15.78 19.16 15.55C19.39 15.33 19.62 15.09 19.83 14.85C20.04 14.6 20.24 14.34 20.42 14.07C20.61 13.8 20.78 13.52 20.93 13.24C21.08 12.95 21.22 12.65 21.34 12.35C21.47 12.05 21.57 11.74 21.66 11.43C21.75 11.11 21.82 10.8 21.87 10.48C21.93 10.15 21.96 9.83 21.98 9.51C22 9.18 22 8.85 21.98 8.53C21.97 8.2 21.93 7.88 21.88 7.56C21.83 7.24 21.76 6.92 21.67 6.6C21.59 6.29 21.48 5.98 21.36 5.68C21.24 5.38 21.11 5.08 20.95 4.79C20.8 4.5 20.64 4.22 20.45 3.95C20.27 3.68 20.07 3.42 19.86 3.18C19.65 2.93 19.43 2.69 19.19 2.47C18.96 2.24 18.71 2.03 18.45 1.83C18.19 1.64 17.92 1.45 17.64 1.28C17.36 1.12 17.08 0.96 16.78 0.83C16.48 0.69 16.18 0.57 15.87 0.46C15.56 0.36 15.25 0.27 14.93 0.2C14.61 0.13 14.29 0.08 13.97 0.04C13.65 0.01 13.32 -0.01 13 -0.01C12.67 -0.01 12.34 0.01 12.02 0.04C11.7 0.08 11.38 0.13 11.06 0.2C10.74 0.27 10.43 0.36 10.12 0.46C9.81 0.57 9.51 0.69 9.21 0.83C8.91 0.96 8.63 1.12 8.35 1.28C8.07 1.45 7.8 1.64 7.54 1.83C7.28 2.03 7.03 2.24 6.8 2.47C6.56 2.69 6.34 2.93 6.13 3.18C5.92 3.42 5.72 3.68 5.54 3.95C5.35 4.22 5.19 4.5 5.04 4.79C4.88 5.08 4.75 5.38 4.63 5.68C4.51 5.98 4.4 6.29 4.32 6.6C4.23 6.92 4.16 7.24 4.11 7.56C4.06 7.88 4.02 8.2 4.01 8.53C3.99 8.85 3.99 9.18 4.01 9.51C4.03 9.83 4.06 10.15 4.12 10.48C4.17 10.8 4.24 11.11 4.33 11.43C4.42 11.74 4.52 12.05 4.65 12.35C4.77 12.65 4.91 12.95 5.06 13.24C5.21 13.52 5.38 13.8 5.57 14.07C5.75 14.34 5.95 14.6 6.16 14.85C6.37 15.09 6.6 15.33 6.83 15.55C7.07 15.78 7.32 15.98 7.58 16.18C7.84 16.38 8.11 16.56 8.39 16.73C4.97 17.84 2.03 20.2 0.13 23.5C0.06 23.61 0.01 23.73 -0.01 23.87C-0.03 24 -0.02 24.13 0.01 24.26C0.05 24.39 0.1 24.51 0.18 24.62C0.27 24.73 0.37 24.82 0.48 24.88C0.6 24.95 0.72 24.99 0.86 25.01C0.99 25.03 1.12 25.02 1.25 24.98C1.38 24.94 1.5 24.88 1.61 24.8C1.71 24.71 1.8 24.61 1.86 24.5C4.22 20.43 8.38 18 13 18C17.61 18 21.77 20.43 24.13 24.5C24.19 24.61 24.28 24.71 24.38 24.8C24.49 24.88 24.61 24.94 24.74 24.98C24.87 25.02 25 25.03 25.13 25.01C25.27 24.99 25.39 24.95 25.51 24.88C25.62 24.82 25.72 24.73 25.81 24.62C25.89 24.51 25.94 24.39 25.98 24.26C26.01 24.13 26.02 24 26 23.87C25.98 23.73 25.93 23.61 25.86 23.5ZM6 9C6 8.54 6.04 8.08 6.13 7.63C6.22 7.18 6.35 6.74 6.53 6.32C6.7 5.89 6.92 5.49 7.17 5.11C7.43 4.72 7.72 4.37 8.05 4.05C8.37 3.72 8.72 3.43 9.11 3.17C9.49 2.92 9.89 2.7 10.32 2.53C10.74 2.35 11.18 2.22 11.63 2.13C12.08 2.04 12.54 2 13 2C13.45 2 13.91 2.04 14.36 2.13C14.81 2.22 15.25 2.35 15.67 2.53C16.1 2.7 16.5 2.92 16.88 3.17C17.27 3.43 17.62 3.72 17.94 4.05C18.27 4.37 18.56 4.72 18.82 5.11C19.07 5.49 19.29 5.89 19.46 6.32C19.64 6.74 19.77 7.18 19.86 7.63C19.95 8.08 20 8.54 20 9C20 9.45 19.95 9.91 19.86 10.36C19.77 10.81 19.64 11.25 19.46 11.67C19.29 12.1 19.07 12.5 18.82 12.88C18.56 13.27 18.27 13.62 17.94 13.94C17.62 14.27 17.27 14.56 16.88 14.82C16.5 15.07 16.1 15.29 15.67 15.46C15.25 15.64 14.81 15.77 14.36 15.86C13.91 15.95 13.45 16 13 16C12.54 15.99 12.08 15.95 11.63 15.86C11.18 15.77 10.74 15.64 10.32 15.46C9.89 15.28 9.49 15.07 9.11 14.81C8.73 14.56 8.37 14.27 8.05 13.94C7.72 13.62 7.43 13.26 7.18 12.88C6.92 12.5 6.71 12.1 6.53 11.67C6.35 11.25 6.22 10.81 6.13 10.36C6.04 9.91 6 9.45 6 9Z" fill="#000000" fill-opacity="1.000000" fill-rule="nonzero"/>
</svg>
