<svg width="56" height="56" viewBox="0 0 56 56" fill="none" xmlns="http://www.w3.org/2000/svg">
<g clip-path="url(#clip0_2632_21697)">
<path d="M56 0H0V56H56V0Z" fill="#00BEF0"/>
<path d="M28 14C20.2581 14 14 20.2581 14 28C14 35.742 20.2581 42 28 42C35.742 42 42 35.742 42 28C42 20.2581 35.742 14 28 14ZM26.0645 33.9354L25.0323 36.9678C21.1613 35.6773 18.5806 32.0001 18.5806 27.871C18.5806 23.7419 21.1613 20.129 25.0968 18.7742L26.129 21.8065C23.5484 22.6452 21.871 25.0968 21.871 27.8065C21.7419 30.6452 23.4839 33.0968 26.0645 33.9354ZM30.8386 37.0322L29.871 33.9354C32.5161 33.0968 34.258 30.6452 34.258 27.871C34.258 25.0968 32.5161 22.7097 29.9354 21.871L30.9677 18.7742C34.9031 20.0645 37.5483 23.7419 37.5483 27.871C37.5483 32.1292 34.8387 35.8064 30.8386 37.0322Z" fill="white"/>
</g>
<defs>
<clipPath id="clip0_2632_21697">
<rect width="56" height="56" fill="white"/>
</clipPath>
</defs>
</svg>
