<svg width="56" height="56" viewBox="0 0 56 56" fill="none" xmlns="http://www.w3.org/2000/svg">
<g clip-path="url(#clip0_2883_22963)">
<g clip-path="url(#clip1_2883_22963)">
<path d="M56 28C56 12.536 43.464 0 28 0C12.536 0 0 12.536 0 28C0 43.464 12.536 56 28 56C43.464 56 56 43.464 56 28Z" fill="url(#paint0_linear_2883_22963)"/>
<path d="M39.9503 18.396C40.6699 19.3405 41.2787 20.3646 41.7647 21.448L27.9999 31.7464L22.2095 28.0896V23.6824L27.9999 27.3448L39.9503 18.396Z" fill="white"/>
<path d="M16.3295 27.776C16.3295 27.58 16.3295 27.384 16.3295 27.188L12.8351 27.0144C12.8351 27.2664 12.8351 27.524 12.8351 27.7816C12.8187 31.8442 14.4113 35.7481 17.2647 38.64L19.7399 36.1312C17.5455 33.905 16.3197 30.9019 16.3295 27.776V27.776Z" fill="white"/>
<path d="M27.9999 15.9767C28.1903 15.9767 28.3863 15.9767 28.5599 15.9767L28.7391 12.4375C28.4871 12.4375 28.2351 12.4375 27.9831 12.4375C25.9902 12.4351 24.0168 12.83 22.1783 13.5992C20.3399 14.3685 18.6732 15.4966 17.2759 16.9175L19.7511 19.4263C20.8284 18.337 22.1088 17.4694 23.5199 16.8727C24.9383 16.2775 26.4617 15.9728 27.9999 15.9767V15.9767Z" fill="white"/>
<path d="M28 39.5751C27.804 39.5751 27.608 39.5751 27.44 39.5751L27.2104 43.1199C27.4624 43.1199 27.7144 43.1199 27.972 43.1199C29.9633 43.1224 31.935 42.7275 33.7717 41.9582C35.6083 41.1889 37.273 40.0608 38.6681 38.6399L36.1984 36.1311C35.122 37.2269 33.8392 38.0986 32.4241 38.6959C31.0221 39.2788 29.5184 39.5776 28 39.5751V39.5751Z" fill="white"/>
<path d="M34.5351 18.0375L37.4751 15.8367C34.7934 13.6307 31.4275 12.4269 27.9551 12.4319V15.9767C30.3078 15.9732 32.6047 16.6925 34.5351 18.0375V18.0375Z" fill="white"/>
<path d="M43.1202 27.776C43.1233 26.8543 43.0446 25.9341 42.885 25.0264L39.6146 27.44V27.7536C39.6267 29.4072 39.2948 31.0453 38.6402 32.564C37.9822 34.0669 37.017 35.4155 35.8066 36.5232L38.1586 39.1552C39.7289 37.7057 40.9808 35.9457 41.8349 33.9868C42.689 32.0279 43.1267 29.9129 43.1202 27.776V27.776Z" fill="white"/>
<path d="M28.0001 39.5751C26.3706 39.5767 24.7594 39.2312 23.2737 38.5615C21.7789 37.8914 20.443 36.9123 19.3537 35.6887L16.7441 38.0799C18.1565 39.6691 19.8903 40.9402 21.8307 41.809C23.7712 42.6779 25.8741 43.1247 28.0001 43.1199V39.5751Z" fill="white"/>
<path d="M20.16 19.04L17.8136 16.408C16.2382 17.8546 14.9814 19.6135 14.1233 21.5727C13.2652 23.5319 12.8246 25.6483 12.8296 27.7872H16.3296C16.3243 26.1429 16.6623 24.5156 17.3218 23.0094C17.9814 21.5032 18.9481 20.1512 20.16 19.04V19.04Z" fill="white"/>
</g>
</g>
<defs>
<linearGradient id="paint0_linear_2883_22963" x1="14.5488" y1="41.9888" x2="53.3624" y2="1.624" gradientUnits="userSpaceOnUse">
<stop stop-color="#A3CD38"/>
<stop offset="0.04" stop-color="#A3CD38"/>
<stop offset="0.11" stop-color="#8EC850"/>
<stop offset="0.21" stop-color="#75C26C"/>
<stop offset="0.27" stop-color="#6CC076"/>
<stop offset="0.28" stop-color="#65BE7F"/>
<stop offset="0.36" stop-color="#55BA91"/>
<stop offset="0.51" stop-color="#2CAFBF"/>
<stop offset="0.61" stop-color="#0FA8E0"/>
</linearGradient>
<clipPath id="clip0_2883_22963">
<rect width="56" height="56" fill="white"/>
</clipPath>
<clipPath id="clip1_2883_22963">
<rect width="56" height="56" fill="white"/>
</clipPath>
</defs>
</svg>
